<?xml version="1.0" encoding="UTF-8"?>
<svg id="Capa_1" data-name="Capa 1" xmlns="http://www.w3.org/2000/svg" xmlns:xlink="http://www.w3.org/1999/xlink" viewBox="0 0 550 53">
  <defs>
    <style>
      .cls-1 {
        filter: url(#drop-shadow-1);
      }

      .cls-2 {
        fill: #182416;
      }
    </style>
    <filter id="drop-shadow-1" x="6.75574" y="5.03851" width="170.11301" height="42.92303" filterUnits="userSpaceOnUse">
      <feOffset dx=".1308" dy=".1308"/>
      <feGaussianBlur result="blur" stdDeviation=".1962"/>
      <feFlood flood-color="#1f201d" flood-opacity=".3"/>
      <feComposite in2="blur" operator="in"/>
      <feComposite in="SourceGraphic"/>
    </filter>
  </defs>
  <g class="cls-1">
    <g>
      <path class="cls-2" d="M28.98302,22.79715c.0636.03353.12719.06706.19072.10049.00633.07274.00813.16923-.06718.18256-.12185.02161-.12989-.08624-.13283-.17644-.00116-.0354.00595-.07107.00929-.10661Z"/>
      <path class="cls-2" d="M23.99562,36.17335c.04277-.04099.08554-.08198.12838-.12298.11225.08934.11153.21147.09809.3373l-.0043.00429c-.11411-.03219-.1805-.11285-.22216-.21861Z"/>
      <path class="cls-2" d="M24.22209,36.38767c.01489.01638.02979.03277.04468.04916-.01022-.00213-.02407-.00091-.02982-.00716-.0092-.00999-.01302-.02493-.01914-.03774-.00002.00003.00428-.00426.00428-.00426Z"/>
      <g>
        <path class="cls-2" d="M134.7077,16.03318c.08241-.10492.1588-.09274.22845-.09287.80963-.00144,1.6194.00655,2.42884-.00582.24549-.00375.41626.08872.5751.26128.53543.5817,1.07772,1.15711,1.61861,1.73378,1.25799,1.3412,2.51791,2.68057,3.7747,4.0229.98018,1.0469,1.9565,2.09742,2.93512,3.14578.55207.59141,1.10457,1.18243,1.65901,1.77161.08748.09298.18209.18057.28168.26033.0515.04124.11591.00805.12048-.05108.01274-.16454.01277-.3303.0128-.49558.00054-3.31086.0003-6.62172.00071-9.93258.00001-.16548.00034-.33117.00814-.49639.00608-.12898.08392-.20584.2111-.20659.66229-.0039,1.32464-.00596,1.9869-.0005.16297.00134.21986.07108.22989.24503.00845.14672.0056.29416.00561.44128.00023,4.52484.00019,9.04968.00015,13.57452,0,.11036.00289.22086-.00156.33106-.0113.27951-.03885.31288-.32951.31583-.58878.00596-1.17769-.00241-1.76644.00489-.19727.00245-.35408-.05067-.48869-.20017-.20916-.2323-.4351-.44941-.64637-.67989-.57134-.6233-1.13458-1.25403-1.70867-1.87476-.67422-.72899-1.35982-1.44747-2.03453-2.17601-1.18671-1.2814-2.36646-2.56927-3.55433-3.8496-.40027-.43141-.81581-.84866-1.22689-1.26993-.0204-.02091-.06487-.02463-.09827-.02506-.04568-.0006-.06312.02954-.06347.07483-.00131.16532-.00778.33061-.00781.49592-.00055,2.94298.00003,5.88597-.00069,8.82895-.00018.73646.05673.67117-.69345.67305-.46002.00115-.92015.00483-1.38002-.00361-.26511-.00486-.32103-.06619-.33415-.32981-.00823-.16517-.00333-.331-.00333-.49654-.00011-3.78909-.00008-7.57819-.00009-11.36728,0-.12876-.0056-.25779.00097-.3862.00901-.17599-.04857-.31779-.16992-.44749-.3642-.38928-.71952-.78685-1.08127-1.17843-.17428-.18866-.35614-.37044-.48882-.61484Z"/>
        <path class="cls-2" d="M58.31602,26.71811c.31326.28743.61976.60328.97028.87319,1.20792.93013,2.56357,1.4033,4.09018,1.40706.98278.00243,1.94232-.12647,2.86948-.4523.57736-.2029,1.0936-.50181,1.52851-.95348.68121-.70746.60284-1.88612.15544-2.50132-.24767-.34056-.5871-.55801-.96811-.70383-.27285-.10442-.56093-.19806-.84919-.22683-.49276-.04918-.98107-.14691-1.48089-.13659-.55172.0114-1.10395-.00164-1.65595-.00358-.86747-.00304-1.71984-.12555-2.56171-.32715-.5396-.12922-1.05767-.3218-1.52873-.61456-.7074-.43963-1.2549-1.02304-1.49055-1.84358-.36202-1.26054-.08137-2.40563.69974-3.42679.92555-1.20999,2.20209-1.85262,3.66421-2.17525.65333-.14416,1.3146-.12457,1.97615-.13263,1.15222-.01405,2.26955.17771,3.34891.57213.93871.34303,1.80385.82592,2.58432,1.45373.09963.08013.18998.17304.27677.26726.03712.0403.04312.09992.00503.15108-.02188.02937-.04456.05855-.06996.08485-.3835.39689-.76509.79567-1.15244,1.18877-.19187.19473-.22964.19364-.47046.03708-.24639-.16017-.48788-.32803-.73684-.48403-1.10022-.68937-2.29573-1.05917-3.59919-1.05872-.36788.00013-.7386-.02128-1.10308.01574-.88634.09003-1.66928.42699-2.29444,1.07728-.3858.4013-.58321.87679-.55475,1.44839.02217.44519.22487.76871.58035,1.0069.3084.20664.6522.34677,1.01389.41946.377.07576.7552.15649,1.14609.14374.93873-.03062,1.87523.04618,2.80892.1152,1.11913.08273,2.22316.27101,3.24954.77143,1.17257.57169,1.81337,1.50159,1.9547,2.79774.05002.45884.07682.90392.00732,1.36754-.15236,1.01636-.65032,1.81716-1.40462,2.4849-.89175.78942-1.95843,1.22-3.09461,1.49856-1.07603.26381-2.17401.39915-3.27867.32282-2.39914-.16578-4.49273-1.0368-6.17439-2.7993-.0507-.05313-.10167-.10705-.14445-.16642-.05023-.06971-.03359-.14382.02756-.19486.50795-.42392,1.01788-.84547,1.52899-1.26558.02493-.02049.06646-.02079.12666-.03808Z"/>
        <path class="cls-2" d="M94.09665,30.76848c-.12517.10247-.21903.08799-.30806.08818-.66255.00146-1.32525-.00724-1.98758.005-.25218.00466-.4258-.07734-.52772-.30836-.02966-.06722-.06755-.13074-.09937-.19706-.81927-1.70778-1.70973-3.37929-2.59645-5.05222-.45608-.86048-.96167-1.69478-1.44643-2.54003-.41158-.71763-.8254-1.43398-1.23812-2.15096-.03668-.06373-.0699-.12963-.10936-.19157-.1004-.15756-.19632-.16245-.28374-.00735-.19859.35232-.39343.70681-.58561,1.06267-.94355,1.74721-1.88575,3.49515-2.82824,5.24293-.02614.04848-.05296.09687-.0748.14732-.02807.06481.04874.14528.12593.12612.19556-.04852.39108-.09817.58413-.15569,1.17934-.35138,2.35802-.70496,3.5368-1.05822.08796-.02636.17352-.06205.26263-.08304.21724-.05117.30579-.0206.40283.18188.27011.56359.53072,1.13177.79141,1.69981.07277.15856.034.24242-.12918.28658-.56708.1535-1.13517.30323-1.70294.45417-1.6856.4481-3.37039.8993-5.05765,1.34105-.28799.0754-.49361.2159-.60621.49901-.0676.16995-.16988.32588-.25241.49019-.07432.14798-.19067.21089-.35537.20901-.34963-.00401-.69934-.00042-1.04902-.00026-.40408.0002-.80816.00005-1.19468.00005-.1164-.13298-.02876-.22697.01851-.31647.352-.66664.70608-1.3322,1.06401-1.99567.39281-.72812.79375-1.45187,1.18531-2.18065.92244-1.71689,1.83931-3.43676,2.76253-5.15323.59218-1.10098,1.19174-2.19801,1.78761-3.29701.04382-.08082.07984-.16623.12801-.24425.07695-.12463.05685-.239-.00657-.36288-.16761-.32736-.32762-.6586-.49105-.98809-.04903-.09886-.0993-.19711-.14918-.29555-.16608-.32774-.13307-.38529.21411-.38294.66252.00449,1.32516.00676,1.9876-.00138.21094-.00259.33929.07733.43477.26428.2592.50753.53465,1.00674.79884,1.51176.6478,1.23833,1.29048,2.47935,1.93958,3.71699,1.17,2.23085,2.34201,4.46065,3.51565,6.68958.45398.86218.91547,1.72041,1.37153,2.58151.05925.11187.10638.23016.16797.36479Z"/>
        <path class="cls-2" d="M124.27218,23.3593c.00001-2.26008.00008-4.52016-.00005-6.78023-.00004-.66548-.03511-.64169.61988-.64016.47791.00112.9559-.00318,1.43368.00525.23304.00411.27861.05933.29026.30318.00703.14669.00325.29392.00325.44091.00009,4.48341.00035,8.96681-.00019,13.45022-.00009.78271.05945.71705-.70613.71898-.44115.00111-.88239.00438-1.32345-.00244-.2741-.00424-.30525-.04238-.3155-.32964-.00525-.14681-.00171-.29396-.00171-.44095-.00005-2.24171-.00004-4.48341-.00004-6.72511Z"/>
        <path class="cls-2" d="M115.78183,26.41541c-.04296-1.09168-.43496-2.03393-1.22999-2.80173-.26827-.25909-.57704-.45112-.92038-.62407.04531-.17454.15085-.22728.23533-.29224.53368-.41035.83356-.96477,1.01299-1.59939.1321-.46728.14246-.94393.1181-1.42175-.04562-.89471-.36308-1.67766-.98275-2.33471-.45112-.47833-.99493-.80832-1.60328-1.04354-.76765-.29684-1.56735-.36322-2.38186-.36121-2.53863.00619-5.0773.00184-7.61595.00243-.73473.00017-.68526-.05014-.6853.68685-.0004,4.52367-.00019,9.04735-.00019,13.57102,0,.0735-.00121.14708.00029.22058.00875.42492.01454.43128.4321.43957.12871.00251.25752.0005.38629.0005,2.11555,0,4.23106.00285,6.34661-.00151.80777-.00167,1.61467.02143,2.42183-.08555.90268-.11946,1.77137-.33485,2.56226-.78814.9109-.52211,1.57494-1.25458,1.83376-2.30566.10292-.41789.0867-.84063.07015-1.26145ZM104.1487,18.67028c.0001-.10991.00308-.22041.01413-.32974.01028-.10137.07262-.16968.17529-.17797.14614-.01189.29326-.01532.43999-.01549.95582-.00126,1.91163-.00067,2.86743-.00067v.0108c.97415,0,1.9483.00176,2.92244-.00084.37515-.001.72885.0858,1.06318.24862.59885.29148.91327.77349.93953,1.43983.00504.12833.00632.2575-.00136.38566-.04204.7015-.38463,1.21323-1.00031,1.5397-.37984.20133-.78965.2837-1.22158.28152-1.04767-.00544-2.09573-.01574-3.143.00645-.65895.0139-1.32149.04889-1.96596.20735-.30205.07425-.59408.18885-.89176.28169-.10539.0329-.17745-.018-.18747-.12925-.00822-.09125-.01063-.18333-.01067-.27499-.00069-1.15756-.00082-2.31512.00013-3.47268ZM112.67455,27.93151c-.27918.21246-.58102.38984-.91725.49641-.43892.13896-.88567.24067-1.3507.23155-.03677-.00067-.07354.00008-.11033.00008-.90111,0-1.80226,0-2.70337.00008-.9379,0-1.87582.0005-2.81372-.0005-.14689-.00017-.29401-.00335-.44064-.01205-.10456-.00619-.16786-.07115-.17801-.17337-.01086-.10941-.01182-.22008-.01191-.33016-.00086-.91915-.00065-1.8383-.00036-2.75753.00002-.09183.00241-.18366.004-.27558.00247-.14331.07141-.24318.20091-.30144.08377-.03767.16671-.0786.25346-.10799.59362-.20116,1.19707-.35494,1.82961-.35552,1.43433-.00134,2.86866-.0005,4.30299-.00268.4286-.00067.8377.09861,1.23859.23615.29741.10204.56507.25415.80727.462.84458.72477.85316,2.15749-.11054,2.89055Z"/>
        <path class="cls-2" d="M176.74696,22.08051c-.17046-.95548-.53295-1.83805-1.0515-2.64821-.8973-1.40191-2.14699-2.41423-3.65509-3.09196-1.28758-.57844-2.64168-.89872-4.02733-.83477-.75905-.01976-1.47326.02327-2.17685.18107-1.54891.3474-2.95547.98453-4.18307,2.00874-.8187.683-1.4738,1.49316-1.94212,2.44244-.66971,1.35746-.87639,2.79713-.61216,4.28937.27669,1.56247.9744,2.92094,2.08175,4.05924.92532.95121,2.02724,1.63656,3.27175,2.09211.76175.27884,1.54858.43178,2.35432.54329.9261.12825,1.83734.06906,2.74489-.06421,1.11729-.16399,2.16791-.55065,3.16341-1.08959,1.03547-.56045,1.92777-1.30071,2.63615-2.22906,1.27781-1.67439,1.76945-3.56426,1.39584-5.65846ZM173.25628,26.59916c-.90042,1.11872-2.07742,1.78916-3.43859,2.16126-.60243.16466-1.2208.26068-1.8528.2369-1.78663-.02319-3.40159-.54396-4.76424-1.72278-.89983-.77851-1.50224-1.75183-1.71248-2.9412-.31651-1.7905.17408-3.33816,1.40874-4.66113.95215-1.02019,2.14588-1.59411,3.49876-1.83671,1.43326-.25708,2.85211-.19789,4.22903.33258.77923.30019,1.50618.69824,2.11258,1.27174,1.08768,1.02864,1.70179,2.27812,1.70704,3.80602.00435,1.26588-.39696,2.37037-1.18803,3.35331Z"/>
      </g>
      <g>
        <path class="cls-2" d="M45.99161,26.58116h.00042c0-2.2263.00153-4.45269-.00113-6.67907-.00061-.51407-.01557-1.02454-.10263-1.53719-.25032-1.47424-.88332-2.75661-1.86749-3.87006-.65211-.73783-1.43711-1.30179-2.29651-1.78539-1.7787-1.00085-3.53525-2.04105-5.30321-3.06107-2.07066-1.19473-4.14754-2.37874-6.21427-3.58025-1.08988-.63353-2.27345-.92334-3.51418-1.01927-.44072-.03399-.87861.02185-1.31814.0786-.99784.12892-1.93457.42483-2.80607.92727-1.03551.59703-2.07089,1.19439-3.10699,1.79042-1.35489.77935-2.71158,1.55561-4.06538,2.33688-1.51304.87319-3.01543,1.7653-4.53832,2.62092-1.0453.58732-1.9343,1.34223-2.63025,2.31185-.92334,1.28648-1.46105,2.71978-1.46459,4.31557-.01042,4.71027-.00195,9.42062-.00712,14.13088-.00052.48201.05278.95799.16035,1.42108.527,2.26874,1.80308,3.99253,3.82249,5.16088.81179.4697,1.62607.93497,2.43801,1.40442,1.51239.87428,3.02319,1.75132,4.53598,2.62493,1.54466.89203,3.09066,1.78171,4.63654,2.67165,1.54286.88818,3.18235,1.28254,4.97096,1.05326,1.09637-.14047,2.10601-.48603,3.05521-1.03718,1.24016-.72017,2.48206-1.43732,3.72417-2.15414,1.36973-.7904,2.74111-1.57804,4.11077-2.36853,1.24228-.71699,2.47476-1.45147,3.72762-2.14945.91503-.50972,1.69369-1.17413,2.35461-1.97274.43362-.52395.78174-1.10943,1.053-1.74002.43471-1.01056.65726-2.05612.65033-3.16002-.01406-2.24463-.00419-4.48952-.00419-6.73424ZM26.77495,7.4944c1.03208.09125,1.94597.50026,2.8275,1.01734,1.58599.93045,3.18189,1.84408,4.7742,2.76381,1.46495.84607,2.93113,1.69005,4.39518,2.53762.13747.07961.26371.17856.39514.26863-.01283.03106-.02568.0622-.03851.09334h-.82523c-1.51794-.00025-2.88911.47858-4.1561,1.28488-.82477.52487-.531.51122-1.44176.14449-1.36401-.54931-2.57071-1.35713-3.57514-2.43583-1.17648-1.26345-1.95091-2.75192-2.36076-4.42816-.08277-.33853-.15076-.68091-.21593-1.02329-.03087-.16232.05615-.23741.22142-.22284ZM9.37738,18.2513c.37432-1.33076,1.1408-2.37757,2.31991-3.10611.59427-.36716,1.20546-.70703,1.81019-1.05719.07802-.04512.15669-.09937.27367-.0745.16705.21104.23617.48017.32394.73917.35709,1.05334.55105,2.13305.49911,3.24884-.03185.68459-.17732,1.34624-.43658,1.98136-.06553.16047-.12209.18701-.30203.13904-.60322-.16089-1.20611-.31978-1.82156-.43212-.79547-.14524-1.59085-.28211-2.40099-.3099-.07358-.00251-.14752-.0031-.22054-.0113-.16196-.01817-.23941-.09476-.21489-.25431.04451-.28964.0906-.58154.16975-.86298ZM9.18974,22.43904c.00038-.55994.02899-.57794.5527-.4625,1.53183.33761,2.99634.8593,4.38532,1.59051.79825.42023,1.54661.91882,2.27824,1.4436.08777.06303.16119.14591.26501.24142-.23201.4497-.56258.81468-.89083,1.17589-.84737.93246-1.84449,1.67615-2.93642,2.30106-.94456.54061-1.93913.96142-2.97148,1.29811-.20553.06705-.4105.14264-.62449.13745-.08476-.15545-.05747-.30538-.05755-.4502-.00165-2.42512-.00209-4.85023-.0005-7.27535ZM25.70066,45.49062c-.89699-.1259-1.68687-.48385-2.45406-.92936-2.20914-1.28279-4.41916-2.56424-6.63085-3.8426-1.52752-.88299-3.05613-1.76413-4.58884-2.63808-.74603-.42534-1.38835-.96059-1.87951-1.66987-.71669-1.03501-1.03126-2.1806-.95812-3.43626.00898-.1542.08522-.23749.21867-.2775.29879-.08965.59973-.17203.89935-.25884,2.19899-.63713,4.20538-1.65321,5.97058-3.11213.79348-.65579,1.51484-1.3948,2.11302-2.24263.11406-.16173.16449-.16458.29981-.0303.56212.55819,1.06058,1.17162,1.53993,1.80021,1.44666,1.89715,2.58674,3.96825,3.48902,6.17304.13898.33962.2698.68267.40441,1.02404.0271.11401-.02149.14901-.12845.12306-.88294-.99524-1.91324-1.76673-3.2179-2.12426-.42653-.11694-.85693-.19228-1.30131-.2071-.9432-.03139-1.87176.04386-2.77928.31643-.07025.0211-.1467.02428-.21428.05098-.26097.10305-.40811.38901-.22893.67446.25503.40608.54011.79015.85145,1.15162.65389.75918,1.40725,1.39773,2.32556,1.82432.6915.32112,1.41332.5021,2.17831.53073.9617.036,1.9083-.04135,2.8371-.30111.03539-.00988.07015-.02252.10598-.03022.20668-.04403.26455-.01507.33677.17245.033.08572.06385.17245.09032.26034.46102,1.52966.86317,3.07354,1.13226,4.64999.09256.54228.21566,1.08029.28405,1.62534.09181.73147.1656.84423-.69508.72327ZM29.21312,22.68055c-.02066.07015-.02664.14457-.03945.21698-.12678.08656-.1443-.03424-.19065-.10037-.11632-.85913-.4823-1.6163-.97517-2.31395-.68099-.96385-1.58426-1.68059-2.59647-2.26908-.07932-.04612-.16064-.09191-.24634-.12339-.31796-.11686-.54247-.01473-.63418.31208-.11414.40684-.18904.8238-.19957,1.24738-.01097.44116-.02449.88366-.00285,1.32389.0623,1.26714.48929,2.3995,1.28208,3.39608.73467.9235,1.65439,1.61554,2.69071,2.15565.18172.09468.23567.18592.23471.36917-.00486.91965-.0249,1.84006.00584,2.75871.02206.65881.10602,1.31636.18017,1.97241.07005.61955.16424,1.23642.24483,1.85487.00686.05249-.00866.10799-.01385.1629-.11939-.00946-.1438-.10841-.18477-.18383-.70301-1.29342-1.46694-2.54926-2.31621-3.75227-.6258-.8865-1.29621-1.73734-2.00811-2.55746-.47098-.54253-.96329-1.0628-1.47648-1.56398-1.77568-1.73391-3.746-3.19451-5.99576-4.26383-.19377-.09208-.46855-.11887-.54011-.34137-.06033-.18751.11219-.37452.17119-.56539.40711-1.31695.53481-2.65147.36063-4.02601-.14459-1.14115-.45595-2.22739-.89016-3.28525-.03489-.08497-.06222-.17295-.09499-.25884-.03951-.10355.00008-.18324.08566-.23389.31641-.18718.63616-.36875.95452-.55266,1.86258-1.07586,3.72498-2.15205,5.58775-3.22749.31844-.18391.63635-.36883.9586-.5458.15941-.08756.30917-.20191.49992-.22083.11209.11309.12728.25942.15487.40466.23439,1.2339.61295,2.42202,1.18303,3.54233,1.12305,2.20696,2.759,3.92765,4.9253,5.1377.20861.11653.41517.23724.62813.34531.19528.09911.39794.18375.58818.27055.01641.1881-.10332.28889-.18735.40508-.99148,1.37194-1.66774,2.8934-2.14364,4.50995ZM42.54737,36.49342c-.46188.65571-1.07263,1.15455-1.76702,1.55402-1.68862.97147-3.37532,1.94637-5.06303,2.91943-.49356.28462-.98555.572-1.48299.84967-.2414.13478-.3045.11443-.411-.15227-.23152-.57978-.456-1.16267-.66977-1.74915-.69302-1.9015-1.2032-3.85557-1.60138-5.83635-.17307-.86105-.29487-1.73433-.4005-2.60995-.1589-1.31745-.22903-2.6354-.18611-3.95837.06596-2.03377.40914-4.01471,1.219-5.89662.48419-1.12516,1.1409-2.14343,1.98325-3.02934.96255-1.01232,2.13081-1.69976,3.52031-1.9164.85354-.1331,1.72343-.11326,2.57621.08899.93579.22183,1.81737.57844,2.66171,1.03835.282.15361.43967.35971.51365.66877.09524.39788.11874.79794.1186,1.20301-.00077,2.29863-.00036,4.59726-.00036,6.89597,0,2.2618-.0099,4.52376.00412,6.78555.00722,1.16627-.35286,2.20512-1.01471,3.1447Z"/>
        <path class="cls-2" d="M32.82189,27.76701c.17615-1.33097.58639-2.57202,1.39067-3.66618.62634-.85209,1.4522-1.45068,2.39862-1.89071.70196-.32637,1.44015-.54821,2.20429-.67986.39438-.06795.67769.15903.62339.54184-.17138,1.20822-.48141,2.37126-1.13854,3.42246-.67647,1.08216-1.62439,1.83913-2.77422,2.35444-.67179.30107-1.37256.51884-2.10281.63739-.46677.07579-.67495-.12305-.61516-.60999.00448-.03648.00917-.07293.01375-.10939Z"/>
      </g>
      <g>
        <path class="cls-2" d="M66.77287,39.92607c-.1976,0-.37896-.03336-.54491-.09923-.16681-.06501-.31052-.15825-.43285-.27887-.12147-.12062-.21728-.26176-.28657-.42258-.06843-.16168-.10351-.33961-.10351-.53293s.03507-.37126.10351-.53293c.06929-.16082.1651-.30197.28828-.42258s.26775-.213.43456-.27887c.16595-.06587.34816-.09923.54491-.09923.19932,0,.38409.03422.55261.10265s.31223.16938.43028.30368l-.24038.23439c-.09837-.10436-.20958-.18135-.33276-.23268-.12318-.05047-.25492-.07613-.39521-.07613-.14542,0-.27973.02481-.40462.07442-.12404.04961-.23182.1189-.32335.20872-.09068.08896-.16168.19504-.21215.31822s-.07613.25663-.07613.40034.02566.27716.07613.40034.12147.22926.21215.31822c.09153.08982.19932.15911.32335.20872.12489.04961.2592.07442.40462.07442.14029,0,.27203-.02481.39521-.07613.12318-.05047.23439-.13003.33276-.2361l.24038.23439c-.11805.1343-.26176.2361-.43028.30539s-.35415.10436-.55603.10436Z"/>
        <path class="cls-2" d="M71.11503,39.92607c-.1976,0-.38067-.03336-.54919-.10094-.16852-.06672-.3148-.16082-.43798-.28058-.12318-.12062-.21899-.26176-.28828-.42344-.06843-.16082-.10351-.33704-.10351-.52866,0-.19076.03507-.36698.10351-.52866.06929-.16168.1651-.30282.28828-.42258.12318-.12062.26861-.21471.43627-.28144.16766-.06758.35073-.10094.5509-.10094.19675,0,.37896.03336.54662.09923s.31309.15825.43627.27887.21813.26262.28571.42515c.06843.16253.1018.33961.1018.53037,0,.19333-.03336.37126-.1018.53293-.06758.16082-.16253.30197-.28571.42258s-.26861.21386-.43627.27887c-.16766.06587-.34987.09923-.54662.09923ZM71.11075,39.59416c.14542,0,.27887-.02481.4012-.07442s.22754-.11976.31822-.21044c.08982-.09068.15997-.19675.21044-.31822s.07528-.25492.07528-.39863-.02481-.2763-.07528-.39692c-.05047-.11976-.12062-.22583-.21044-.31822-.09068-.09153-.19589-.16253-.31822-.21215s-.25577-.07442-.4012-.07442c-.14286,0-.27545.02481-.39692.07442-.12233.04961-.2284.12062-.31993.21215-.09068.09239-.16168.19846-.21215.31822-.05047.12062-.07613.25321-.07613.39692s.02566.27716.07613.39863.12147.22754.21215.31822c.09153.09068.1976.16082.31993.21044.12147.04961.25406.07442.39692.07442Z"/>
        <path class="cls-2" d="M74.76601,39.89613v-2.60735h.30282l1.71086,2.142h-.15911v-2.142h.36955v2.60735h-.30282l-1.71086-2.142h.15911v2.142h-.36955Z"/>
        <path class="cls-2" d="M80.23477,39.92607c-.1976,0-.3858-.0308-.56544-.09153s-.32164-.13944-.42515-.2361l.13687-.29085c.09837.08725.22412.15911.37724.21642.15227.05646.31138.08554.47647.08554.1497,0,.27203-.01796.36527-.05218.0941-.03507.16339-.08298.20701-.14371.04448-.06074.06672-.12917.06672-.20701,0-.08896-.02908-.16082-.0864-.21557-.05817-.05475-.13345-.09837-.22583-.13259-.09239-.03336-.19418-.06245-.30453-.08725-.11121-.02481-.22241-.05389-.33447-.08725s-.21471-.07699-.3071-.12831c-.09239-.05218-.16681-.12233-.22327-.21044s-.08469-.20188-.08469-.34132c0-.1343.03507-.25748.10522-.3704s.17793-.20359.32506-.27203c.14628-.06843.33276-.10265.55945-.10265.15056,0,.2994.02053.44739.05988s.27545.09666.38409.17109l-.12147.29855c-.11121-.07442-.2284-.12917-.35158-.16253s-.24209-.05047-.35843-.05047c-.14542,0-.26433.01882-.35843.05646-.09324.03678-.16168.0864-.2053.14884-.04277.06159-.06416.13174-.06416.20872,0,.09153.02908.1651.0864.21985.05817.05389.13345.09752.22583.13003s.19418.06159.30453.08725c.11121.02652.22241.0556.33447.08811.11206.03165.21471.07442.3071.1266s.16681.12147.22327.20872c.05646.0864.08469.19846.08469.33447,0,.13174-.03507.25406-.10693.36698-.071.11292-.18135.20359-.3302.27203-.1497.06843-.33704.10265-.56373.10265Z"/>
        <path class="cls-2" d="M83.96701,39.89613v-2.28314h-.88708v-.32421h2.13943v.32421h-.88623v2.28314h-.36612Z"/>
        <path class="cls-2" d="M87.33741,39.89613v-2.60735h1.00855c.22669,0,.42002.03593.57998.10778.15997.07271.28315.17707.36955.31309.0864.13687.12917.2994.12917.48845,0,.18819-.04277.35073-.12917.48588s-.20958.23867-.36955.31052c-.15997.07271-.35329.10864-.57998.10864h-.80582l.16681-.17194v.96493h-.36955ZM87.70696,38.96884l-.16681-.18306h.79469c.2361,0,.41574-.05133.53721-.15398.12233-.10351.18306-.24807.18306-.4337,0-.18648-.06074-.3302-.18306-.43285-.12147-.1018-.30111-.15227-.53721-.15227h-.79469l.16681-.18648v1.54234ZM89.06623,39.89613l-.65783-.94611h.39606l.66467.94611h-.40291Z"/>
        <path class="cls-2" d="M92.8096,39.92607c-.33961,0-.60736-.09837-.80154-.29427-.19504-.19589-.2917-.48332-.2917-.86056v-1.48246h.36955v1.46792c0,.28999.0633.50214.18991.63644s.30624.20103.53807.20103c.23353,0,.41403-.06672.54063-.20103.12746-.1343.19076-.34645.19076-.63644v-1.46792h.35843v1.48246c0,.37724-.09666.66467-.28999.86056s-.46108.29427-.8041.29427Z"/>
        <path class="cls-2" d="M96.96357,39.89613v-.99829l.08469.23097-1.11206-1.84003h.39521l.93499,1.55346h-.21471l.93926-1.55346h.36527l-1.10864,1.84003.08127-.23097v.99829h-.36527Z"/>
        <path class="cls-2" d="M100.76937,39.57192h1.50727v.32421h-1.87681v-2.60735h1.82549v.32421h-1.45594v1.95894ZM100.73601,38.41367h1.33019v.31651h-1.33019v-.31651Z"/>
        <path class="cls-2" d="M104.59058,39.89613v-2.60735h.30282l1.71086,2.142h-.15911v-2.142h.36955v2.60735h-.30282l-1.71086-2.142h.15911v2.142h-.36955Z"/>
        <path class="cls-2" d="M109.30571,39.89613v-2.60735h1.08982c.27545,0,.51925.05475.72968.16424.21044.10864.37468.26176.49187.45766.11634.19675.17536.42344.17536.68178s-.05902.48588-.17536.68178c-.11719.19589-.28144.34902-.49187.45766-.21044.1095-.45423.16424-.72968.16424h-1.08982ZM109.67526,39.57192h.69803c.21471,0,.39949-.04106.55603-.12233.15654-.08212.27801-.1976.36441-.34474.08554-.14799.12917-.31908.12917-.5124,0-.19589-.04363-.36698-.12917-.51411-.0864-.14628-.20787-.26091-.36441-.34217-.15654-.08212-.34132-.12318-.55603-.12318h-.69803v1.95894Z"/>
        <path class="cls-2" d="M115.23983,39.92607c-.1976,0-.38067-.03336-.54919-.10094-.16852-.06672-.3148-.16082-.43798-.28058-.12318-.12062-.21899-.26176-.28828-.42344-.06843-.16082-.10351-.33704-.10351-.52866,0-.19076.03507-.36698.10351-.52866.06929-.16168.1651-.30282.28828-.42258.12318-.12062.26861-.21471.43627-.28144.16766-.06758.35073-.10094.5509-.10094.19675,0,.37896.03336.54662.09923s.31309.15825.43627.27887.21813.26262.28571.42515c.06843.16253.1018.33961.1018.53037,0,.19333-.03336.37126-.1018.53293-.06758.16082-.16253.30197-.28571.42258s-.26861.21386-.43627.27887c-.16766.06587-.34987.09923-.54662.09923ZM115.23556,39.59416c.14542,0,.27887-.02481.4012-.07442s.22754-.11976.31822-.21044c.08982-.09068.15997-.19675.21044-.31822s.07528-.25492.07528-.39863-.02481-.2763-.07528-.39692c-.05047-.11976-.12062-.22583-.21044-.31822-.09068-.09153-.19589-.16253-.31822-.21215s-.25577-.07442-.4012-.07442c-.14286,0-.27545.02481-.39692.07442-.12233.04961-.2284.12062-.31993.21215-.09068.09239-.16168.19846-.21215.31822-.05047.12062-.07613.25321-.07613.39692s.02566.27716.07613.39863.12147.22754.21215.31822c.09153.09068.1976.16082.31993.21044.12147.04961.25406.07442.39692.07442Z"/>
        <path class="cls-2" d="M122.7565,39.92607c-.1976,0-.37896-.03336-.54491-.09923-.16681-.06501-.31052-.15825-.43285-.27887-.12147-.12062-.21728-.26176-.28657-.42258-.06843-.16168-.10351-.33961-.10351-.53293s.03507-.37126.10351-.53293c.06929-.16082.1651-.30197.28828-.42258s.26775-.213.43456-.27887c.16595-.06587.34816-.09923.54491-.09923.19932,0,.38409.03422.55261.10265s.31223.16938.43028.30368l-.24038.23439c-.09837-.10436-.20958-.18135-.33276-.23268-.12318-.05047-.25492-.07613-.39521-.07613-.14542,0-.27973.02481-.40462.07442-.12404.04961-.23182.1189-.32335.20872-.09068.08896-.16168.19504-.21215.31822s-.07613.25663-.07613.40034.02566.27716.07613.40034.12147.22926.21215.31822c.09153.08982.19932.15911.32335.20872.12489.04961.2592.07442.40462.07442.14029,0,.27203-.02481.39521-.07613.12318-.05047.23439-.13003.33276-.2361l.24038.23439c-.11805.1343-.26176.2361-.43028.30539s-.35415.10436-.55603.10436Z"/>
        <path class="cls-2" d="M127.09781,39.92607c-.1976,0-.38067-.03336-.54919-.10094-.16852-.06672-.3148-.16082-.43798-.28058-.12318-.12062-.21899-.26176-.28828-.42344-.06843-.16082-.10351-.33704-.10351-.52866,0-.19076.03507-.36698.10351-.52866.06929-.16168.1651-.30282.28828-.42258.12318-.12062.26861-.21471.43627-.28144.16766-.06758.35073-.10094.5509-.10094.19675,0,.37896.03336.54662.09923s.31309.15825.43627.27887.21813.26262.28571.42515c.06843.16253.1018.33961.1018.53037,0,.19333-.03336.37126-.1018.53293-.06758.16082-.16253.30197-.28571.42258s-.26861.21386-.43627.27887c-.16766.06587-.34987.09923-.54662.09923ZM127.09353,39.59416c.14542,0,.27887-.02481.4012-.07442s.22754-.11976.31822-.21044c.08982-.09068.15997-.19675.21044-.31822s.07528-.25492.07528-.39863-.02481-.2763-.07528-.39692c-.05047-.11976-.12062-.22583-.21044-.31822-.09068-.09153-.19589-.16253-.31822-.21215s-.25577-.07442-.4012-.07442c-.14286,0-.27545.02481-.39692.07442-.12233.04961-.2284.12062-.31993.21215-.09068.09239-.16168.19846-.21215.31822-.05047.12062-.07613.25321-.07613.39692s.02566.27716.07613.39863.12147.22754.21215.31822c.09153.09068.1976.16082.31993.21044.12147.04961.25406.07442.39692.07442Z"/>
        <path class="cls-2" d="M130.74964,39.89613v-2.60735h.30282l1.15996,1.97006h-.16253l1.14542-1.97006h.30368l.00342,2.60735h-.355l-.00342-2.04448h.08469l-1.01967,1.72797h-.17023l-1.02737-1.72797h.09239v2.04448h-.35415Z"/>
        <path class="cls-2" d="M137.06357,39.92607c-.33961,0-.60736-.09837-.80154-.29427-.19504-.19589-.2917-.48332-.2917-.86056v-1.48246h.36955v1.46792c0,.28999.0633.50214.18991.63644s.30624.20103.53807.20103c.23353,0,.41403-.06672.54063-.20103.12746-.1343.19076-.34645.19076-.63644v-1.46792h.35843v1.48246c0,.37724-.09666.66467-.28999.86056s-.46108.29427-.8041.29427Z"/>
        <path class="cls-2" d="M140.63071,39.89613v-2.60735h.30282l1.71086,2.142h-.15911v-2.142h.36955v2.60735h-.30282l-1.71086-2.142h.15911v2.142h-.36955Z"/>
        <path class="cls-2" d="M145.34584,39.89613v-2.60735h.36955v2.60735h-.36955Z"/>
        <path class="cls-2" d="M148.20555,39.89613v-2.60735h1.08982c.27545,0,.51925.05475.72968.16424.21044.10864.37468.26176.49187.45766.11634.19675.17536.42344.17536.68178s-.05902.48588-.17536.68178c-.11719.19589-.28144.34902-.49187.45766-.21044.1095-.45423.16424-.72968.16424h-1.08982ZM148.57509,39.57192h.69803c.21471,0,.39949-.04106.55603-.12233.15654-.08212.27801-.1976.36441-.34474.08554-.14799.12917-.31908.12917-.5124,0-.19589-.04363-.36698-.12917-.51411-.0864-.14628-.20787-.26091-.36441-.34217-.15654-.08212-.34132-.12318-.55603-.12318h-.69803v1.95894Z"/>
        <path class="cls-2" d="M152.54343,39.89613l1.17108-2.60735h.36612l1.17451,2.60735h-.38751l-1.04619-2.39863h.14799l-1.04534,2.39863h-.38067ZM153.04215,39.24429l.09923-.29769h1.45594l.10778.29769h-1.66296Z"/>
        <path class="cls-2" d="M157.35523,39.89613v-2.60735h1.08982c.27545,0,.51925.05475.72968.16424.21044.10864.37468.26176.49187.45766.11634.19675.17536.42344.17536.68178s-.05902.48588-.17536.68178c-.11719.19589-.28144.34902-.49187.45766-.21044.1095-.45423.16424-.72968.16424h-1.08982ZM157.72477,39.57192h.69803c.21471,0,.39949-.04106.55603-.12233.15654-.08212.27801-.1976.36441-.34474.08554-.14799.12917-.31908.12917-.5124,0-.19589-.04363-.36698-.12917-.51411-.0864-.14628-.20787-.26091-.36441-.34217-.15654-.08212-.34132-.12318-.55603-.12318h-.69803v1.95894Z"/>
        <path class="cls-2" d="M162.49123,39.57192h1.50727v.32421h-1.87681v-2.60735h1.82549v.32421h-1.45594v1.95894ZM162.45787,38.41367h1.33019v.31651h-1.33019v-.31651Z"/>
        <path class="cls-2" d="M167.06607,39.92607c-.1976,0-.3858-.0308-.56544-.09153s-.32164-.13944-.42515-.2361l.13687-.29085c.09837.08725.22412.15911.37724.21642.15227.05646.31138.08554.47647.08554.1497,0,.27203-.01796.36527-.05218.0941-.03507.16339-.08298.20701-.14371.04448-.06074.06672-.12917.06672-.20701,0-.08896-.02908-.16082-.0864-.21557-.05817-.05475-.13345-.09837-.22583-.13259-.09239-.03336-.19418-.06245-.30453-.08725-.11121-.02481-.22241-.05389-.33447-.08725s-.21471-.07699-.3071-.12831c-.09239-.05218-.16681-.12233-.22327-.21044s-.08469-.20188-.08469-.34132c0-.1343.03507-.25748.10522-.3704s.17793-.20359.32506-.27203c.14628-.06843.33276-.10265.55945-.10265.15056,0,.2994.02053.44739.05988s.27545.09666.38409.17109l-.12147.29855c-.11121-.07442-.2284-.12917-.35158-.16253s-.24209-.05047-.35843-.05047c-.14542,0-.26433.01882-.35843.05646-.09324.03678-.16168.0864-.2053.14884-.04277.06159-.06416.13174-.06416.20872,0,.09153.02908.1651.0864.21985.05817.05389.13345.09752.22583.13003s.19418.06159.30453.08725c.11121.02652.22241.0556.33447.08811.11206.03165.21471.07442.3071.1266s.16681.12147.22327.20872c.05646.0864.08469.19846.08469.33447,0,.13174-.03507.25406-.10693.36698-.071.11292-.18135.20359-.3302.27203-.1497.06843-.33704.10265-.56373.10265Z"/>
      </g>
    </g>
  </g>
  <rect class="cls-2" x="198.64082" y="1.76478" width="1.34105" height="49.47044"/>
  <g>
    <path class="cls-2" d="M254.39193,41.94862l-.0459-19.24512-9.43945,15.85449h-3.34473l-9.39355-15.44238v18.83301h-6.96484V9.87294h6.13965l12.00586,19.93262,11.82227-19.93262h6.09375l.0918,32.07568h-6.96484Z"/>
    <path class="cls-2" d="M297.13607,27.88124v14.06738h-6.69043v-3.07031c-1.32812,2.24561-3.89453,3.43701-7.51465,3.43701-5.77344,0-9.20996-3.20752-9.20996-7.46924,0-4.35303,3.07031-7.37744,10.58496-7.37744h5.68164c0-3.06982-1.83301-4.85693-5.68164-4.85693-2.6123,0-5.31543.87061-7.10254,2.29102l-2.56641-4.99463c2.7041-1.92432,6.69043-2.97852,10.63086-2.97852,7.51465,0,11.86816,3.48242,11.86816,10.95166ZM289.98763,34.15907v-2.52051h-4.90332c-3.34473,0-4.39844,1.2373-4.39844,2.88672,0,1.78711,1.51172,2.97852,4.03223,2.97852,2.38281,0,4.44531-1.09961,5.26953-3.34473Z"/>
    <path class="cls-2" d="M336.17025,17.29628v20.52832c0,9.16455-4.94824,13.37988-13.83789,13.37988-4.67383,0-9.20996-1.14551-12.09766-3.39062l2.8418-5.13232c2.10742,1.6958,5.54395,2.79541,8.70605,2.79541,5.04004,0,7.23926-2.29102,7.23926-6.73584v-1.05371c-1.87793,2.06152-4.58203,3.06982-7.78906,3.06982-6.82812,0-12.32617-4.71973-12.32617-11.91357,0-7.19434,5.49805-11.91406,12.32617-11.91406,3.43652,0,6.27734,1.14551,8.15625,3.52832v-3.16162h6.78125ZM329.11361,28.84364c0-3.62012-2.70312-6.04883-6.46094-6.04883-3.75684,0-6.50684,2.42871-6.50684,6.04883,0,3.61963,2.75,6.04834,6.50684,6.04834,3.75781,0,6.46094-2.42871,6.46094-6.04834Z"/>
    <path class="cls-2" d="M374.88509,27.83534v14.11328h-7.14844v-13.01367c0-3.98633-1.83301-5.81934-4.99512-5.81934-3.43652,0-5.91113,2.10791-5.91113,6.64453v12.18848h-7.14746v-24.65234h6.82715v2.88672c1.9248-2.10791,4.81152-3.25342,8.15625-3.25342,5.81934,0,10.21875,3.39111,10.21875,10.90576Z"/>
    <path class="cls-2" d="M386.65462,29.62245c0-7.42334,5.72754-12.69287,13.56348-12.69287s13.51758,5.26953,13.51758,12.69287-5.68164,12.69287-13.51758,12.69287-13.56348-5.26953-13.56348-12.69287ZM406.49544,29.62245c0-4.26123-2.70312-6.82764-6.27734-6.82764s-6.32324,2.56641-6.32324,6.82764,2.74902,6.82764,6.32324,6.82764,6.27734-2.56641,6.27734-6.82764Z"/>
    <path class="cls-2" d="M425.36947,7.94862h7.14746v34h-7.14746V7.94862Z"/>
    <path class="cls-2" d="M445.16146,9.87294c0-2.24512,1.78711-3.98633,4.44434-3.98633s4.44434,1.64941,4.44434,3.84912c0,2.38281-1.78711,4.12402-4.44434,4.12402s-4.44434-1.74121-4.44434-3.98682ZM446.03158,17.29628h7.14844v24.65234h-7.14844v-24.65234Z"/>
    <path class="cls-2" d="M488.50521,27.88124v14.06738h-6.68945v-3.07031c-1.3291,2.24561-3.89551,3.43701-7.51465,3.43701-5.77441,0-9.21094-3.20752-9.21094-7.46924,0-4.35303,3.07031-7.37744,10.58496-7.37744h5.68262c0-3.06982-1.83301-4.85693-5.68262-4.85693-2.61133,0-5.31543.87061-7.10254,2.29102l-2.56543-4.99463c2.70312-1.92432,6.68945-2.97852,10.63086-2.97852,7.51465,0,11.86719,3.48242,11.86719,10.95166ZM481.35775,34.15907v-2.52051h-4.90332c-3.34473,0-4.39941,1.2373-4.39941,2.88672,0,1.78711,1.5127,2.97852,4.0332,2.97852,2.38281,0,4.44434-1.09961,5.26953-3.34473Z"/>
  </g>
</svg>