<?xml version="1.0" encoding="UTF-8"?>
<svg id="Capa_1" data-name="Capa 1" xmlns="http://www.w3.org/2000/svg" viewBox="0 0 653.33333 145">
  <defs>
    <style>
      .cls-1 {
        fill: #fff;
      }
    </style>
  </defs>
  <g id="Grupo_2" data-name="Grupo 2">
    <g id="Grupo_11" data-name="Grupo 11">
      <path id="Trazado_12" data-name="Trazado 12" class="cls-1" d="M435.89661,72.76785l.25335.13275c.00862.09622.011.22412-.08891.2436-.16206.02801-.17188-.11448-.17544-.23386.00119-.0473.00506-.09449.01219-.14128"/>
      <path id="Trazado_13" data-name="Trazado 13" class="cls-1" d="M429.29158,90.48115l.17039-.16322c.12311.11315.17336.28539.13025.44701h0c-.14006-.04193-.25038-.15047-.29469-.28989"/>
      <path id="Trazado_14" data-name="Trazado 14" class="cls-1" d="M429.59102,90.76371l.05977.06457c-.01338,0-.03152,0-.03895-.00974-.01071-.01539-.01933-.03219-.02557-.04992h0"/>
      <path id="Trazado_15" data-name="Trazado 15" class="cls-1" d="M575.93152,63.80459c.06958-.09529.18734-.14258.30331-.1218,1.0717,0,2.14518.00853,3.21688-.0073.29379-.00913.5751.11869.76125.34591.70891.771,1.42734,1.53225,2.14339,2.29593,1.66642,1.77666,3.33047,3.55291,4.99392,5.32875,1.29948,1.38688,2.59479,2.77581,3.88773,4.16678.73092.78357,1.46124,1.56593,2.19216,2.34709.11597.12346.24086.23863.37289.3447.03985.03494.1011.0308.1356-.00924.01427-.01643.0226-.03721.02379-.05897.01725-.21802.01725-.43725.01725-.6565v-13.1544c0-.21924,0-.43848.01071-.65772-.00714-.14445.10408-.26727.2486-.27432.01011-.00048.02022-.0004.03033.00027.87722,0,1.75385-.0073,2.63107,0,.21708,0,.29082.09379.3045.3252.01071.19488.00714.38976.00714.58464v18.4186c-.01487.3654-.05115.41412-.43593.41778-.77969.00853-1.55878,0-2.33965.0061-.24503.01691-.48411-.08124-.64647-.26553-.27774-.30816-.57629-.5956-.85284-.9001-.75649-.8258-1.50168-1.66135-2.26293-2.4835-.89268-.96587-1.80143-1.91714-2.69411-2.88178-1.57246-1.69668-3.13421-3.4031-4.70786-5.09855-.53109-.57123-1.08062-1.12421-1.62479-1.68205-.03866-.0254-.08445-.03699-.13025-.03289-.06066,0-.08386.03897-.08386.09866,0,.21924-.00952.43726-.00952.6565v11.69281c0,.9744.07553.88913-.91826.89157-.609,0-1.218.0061-1.827,0-.35208-.0061-.42523-.0877-.44307-.43725-.01071-.21923,0-.43848,0-.65771v-15.06183c0-.17052-.00714-.34104,0-.51156.01427-.22103-.0678-.4374-.2254-.59317-.48708-.51521-.95275-1.04261-1.4321-1.56026-.24919-.24292-.46686-.51675-.64647-.81484"/>
      <path id="Trazado_16" data-name="Trazado 16" class="cls-1" d="M474.7498,77.96143c.41542.38124.82102.79902,1.28491,1.1571,1.54272,1.21674,3.45298,1.87376,5.41766,1.86354,1.29175.01946,2.57725-.18323,3.8003-.59926.76571-.25402,1.45976-.68704,2.02445-1.26307.98279-1.04347.93372-2.68616-.10973-3.66904-.27625-.26031-.60632-.45683-.96703-.5757-.3604-.14918-.73865-.25033-1.12552-.30085-.64944-.09994-1.30424-.16055-1.96111-.18148-.73092.01462-1.46154,0-2.19246,0-1.14396-.0125-2.28286-.15801-3.39321-.43361-.71456-.16049-1.3985-.43524-2.02564-.81362-.94502-.53012-1.65156-1.40169-1.97449-2.436-.46835-1.57262-.12043-3.27518.92688-4.53827,1.21324-1.51926,2.93914-2.54386,4.85386-2.88178.86414-.14838,1.74136-.20716,2.61739-.17539,1.51269-.02053,3.01616.23625,4.43607.7576,1.23882.44944,2.39526,1.10004,3.42265,1.92566.13054.10895.25246.22742.36546.35444.05204.05541.05501.14063.00743.19975-.02855.03924-.05947.07666-.09248.11206-.5079.52618-1.01341,1.05357-1.52607,1.57487-.25335.25821-.3045.257-.62238.04872s-.64677-.43483-.97446-.64067c-1.42199-.91451-3.07682-1.40113-4.76733-1.40192-.48708-.01764-.97505-.01072-1.46154.0207-1.15526.0876-2.23825.59494-3.045,1.42628-.50879.50411-.77523,1.20341-.73092,1.91835.01487.54575.30391,1.04722.76868,1.33371.4059.27116.86116.45987,1.33992.55541.49689.12195,1.00628.18571,1.51774.19001,1.24209-.01529,2.48417.03553,3.72091.15225,1.48711.06175,2.94836.40867,4.30433,1.0219,1.48057.66254,2.47555,2.087,2.58825,3.70516.08237.60069.08594,1.20962.00981,1.81117-.19894,1.28606-.86027,2.45533-1.86001,3.2886-1.18202.9891-2.58974,1.67107-4.09856,1.98535-1.41664.36648-2.88145.5107-4.3421.42752-3.10269-.13359-6.0335-1.46215-8.17898-3.7076-.06869-.06916-.13233-.14281-.1912-.22046-.06185-.07718-.04936-.18987.02795-.25168.00268-.00227.00565-.00444.00862-.00654.67323-.56109,1.34854-1.11974,2.02564-1.67598.05323-.02518.10973-.04204.16801-.04994"/>
      <path id="Trazado_17" data-name="Trazado 17" class="cls-1" d="M522.14088,83.32177c-.1127.09627-.26079.1405-.40798.12181-.87692,0-1.75504-.00974-2.63196.0061-.29885.03957-.5867-.12835-.6991-.40804-.03895-.08891-.08891-.17295-.13143-.26066-1.08538-2.26182-2.26412-4.47615-3.43841-6.6917-.609-1.14005-1.2739-2.24478-1.91591-3.36412-.54596-.95085-1.09222-1.90048-1.63936-2.8489-.04877-.08404-.09248-.17174-.14482-.25334-.13262-.20828-.2593-.21559-.37527-.00975-.26317.46689-.52158.93623-.77582,1.40801-1.24952,2.31419-2.49845,4.62839-3.74648,6.94261-.0342.06455-.06929.12788-.09872.19488-.03777.08527.06453.19245.16682.16686.2593-.06455.51771-.13032.77344-.20585,1.56264-.46528,3.1238-.93259,4.68436-1.40192.12192-.03533.23016-.08161.34821-.10962.28755-.06821.4056-.0268.53347.2436.35803.74664.70267,1.49936,1.0488,2.25087.09635.20949.0452.32156-.17039.38001-.75144.20342-1.50287.40194-2.2558.6017-2.2326.59317-4.46402,1.1912-6.699,1.77583-.36397.06678-.66758.31691-.80258.66137-.08891.22533-.2254.43118-.33364.6492-.08237.18241-.2706.29318-.47013.27649h-2.97334c-.15463-.17662-.03777-.30084.02438-.41898.46627-.88265.9355-1.76366,1.4092-2.64306.52009-.96467,1.05118-1.92322,1.57008-2.88788,1.2177-2.2736,2.4357-4.5472,3.654-6.8208.78444-1.4616,1.58346-2.91102,2.3679-4.36653.05858-.10718.10586-.22046.1692-.32399.0907-.14845.08742-.336-.00862-.48111-.22154-.43361-.43356-.87209-.65033-1.30935-.06453-.13033-.13143-.26065-.19745-.39098-.21916-.43361-.17663-.51034.28368-.50669.87692,0,1.75504.00853,2.63196,0,.2477-.02196.48113.11963.57599.34957.34345.67234.70891,1.33371,1.05832,2.00239.85254,1.64065,1.70508,3.2886,2.56862,4.92316,1.54986,2.95486,3.10209,5.90852,4.65641,8.86095.60157,1.14249,1.218,2.27888,1.816,3.41893.07791.14859.14006.3045.22302.48719"/>
      <path id="Trazado_18" data-name="Trazado 18" class="cls-1" d="M562.10948,73.51324v-8.98032c0-.88183-.04639-.8526.82072-.8526.63338,0,1.26558,0,1.89896.0073.30807,0,.36516.07917.38479.40194.00833.19488,0,.38976,0,.58464v17.81447c0,1.03652.07791.95004-.9355.95247h-1.75266c-.36516,0-.40441-.05603-.4175-.43725-.00714-.19488,0-.38977,0-.58343v-8.90724"/>
      <path id="Trazado_19" data-name="Trazado 19" class="cls-1" d="M550.85993,77.55213c-.02468-1.40528-.61168-2.74204-1.62955-3.71124-.3613-.33619-.77225-.61508-1.218-.82702.04788-.16571.16028-.30526.31193-.38732.66877-.53826,1.14009-1.28322,1.33992-2.1181.15493-.61487.20756-1.25105.15582-1.88303-.04044-1.15558-.50373-2.2561-1.30215-3.0925-.59443-.6156-1.32059-1.08828-2.12407-1.38243-1.01222-.35627-2.08243-.51866-3.15473-.47867-3.36288.00853-6.72457,0-10.08745,0-.97446,0-.90755-.06699-.90755.90985v18.26756c.01219.56272.01963.57123.57242.5822h8.91555c1.07081.03195,2.1425-.00589,3.20825-.11328,1.18856-.12184,2.34174-.47654,3.39321-1.04382,1.20729-.62556,2.09076-1.73629,2.42857-3.05353.10973-.54986.14095-1.11249.09248-1.67109M535.44699,67.29172c-.00149-.14597.00476-.29192.01814-.43726.00357-.12706.10437-.22995.23135-.23629.19358-.01583.38865-.0207.58343-.0207h3.79763v.01462h3.87078c.48827-.00043.9703.11212,1.40802.32886.75887.32999,1.24833,1.08,1.24476,1.90739.00743.17052.00862.34104,0,.51034-.02676.87364-.53763,1.65976-1.32505,2.03894-.49927.2577-1.05564.38587-1.61736.37271-1.3872-.0073-2.77589-.0207-4.16309.00853-.87544-.00459-1.74879.08731-2.60401.27406-.40085.09865-.78682.24969-1.18142.37271-.08921.0378-.1921-.00385-.22986-.09304-.01071-.02483-.01517-.05178-.01368-.07871-.011-.12181-.01338-.2436-.01338-.3654v-4.59917M546.74531,79.55576c-.36486.28803-.77701.51055-1.218.65771-.5754.19977-1.17994.30346-1.78923.30693h-7.4543c-.19477,0-.38984,0-.58343-.01583-.12787.00013-.23254-.10131-.2364-.22899-.01457-.14495-.01576-.2911-.01576-.43725v-4.0194c-.00476-.17589.1014-.33578.26555-.39951.11092-.04994.22035-.10354.33602-.14251.77671-.28904,1.59535-.44829,2.42381-.47136h5.69897c.56053.01188,1.11511.11768,1.64055.31303.39222.13257.7553.33933,1.06932.609,1.02352.92119,1.10649,2.49765.18526,3.52112-.1011.11218-.21202.21496-.33156.30706"/>
      <path id="Trazado_20" data-name="Trazado 20" class="cls-1" d="M631.61249,71.81536c-.22719-1.24989-.70059-2.44221-1.39225-3.50784-1.1734-1.81385-2.85826-3.23893-4.84167-4.09492-2.59836-1.07544-5.45245-1.3762-8.21793-.866-2.03456.42636-3.93531,1.33908-5.54047,2.66011-1.07586.885-1.95249,1.98744-2.57219,3.23501-.88198,1.75464-1.16685,3.74936-.81121,5.68075.34792,2.03185,1.31078,3.90819,2.75775,5.37625,1.21562,1.24084,2.69768,2.18846,4.33377,2.77094,1.01044.35093,2.05597.59225,3.11815.71984,2.70363.31337,5.43818-.22076,7.82541-1.5286,1.36073-.72414,2.55078-1.73077,3.49104-2.95243,1.68248-2.10764,2.35809-4.84605,1.849-7.49435M626.98374,77.7994c-1.16923,1.42086-2.76667,2.42503-4.55382,2.86231-.79753.2294-1.62479.33537-2.45444.31424-2.31111.03104-4.55442-.78032-6.31064-2.28252-1.19183-.99098-1.99531-2.37155-2.26769-3.8976-.44367-2.24033.25573-4.55461,1.86625-6.17404,1.23049-1.30166,2.85826-2.15839,4.62816-2.436,1.8722-.3775,3.81279-.2248,5.60292.44092,1.03542.37222,1.98698.9446,2.80116,1.6845,1.43924,1.28005,2.26234,3.11499,2.26056,5.0413.01903,1.62044-.53882,3.19482-1.57365,4.44205"/>
      <path id="Trazado_21" data-name="Trazado 21" class="cls-1" d="M458.42455,77.77628h0v-8.84633c.01189-.68146-.0339-1.36271-.13649-2.0365-.31967-1.9095-1.17786-3.68804-2.47377-5.12656-.87425-.95465-1.90372-1.7544-3.045-2.36536-2.35571-1.32518-4.68198-2.70396-7.02432-4.05472-2.74288-1.5834-5.49319-3.15097-8.23131-4.74167-1.42853-.79916-3.02091-1.26079-4.65522-1.34954-.58402-.02505-1.16894.01005-1.74552.10475-1.3087.15708-2.57249.57453-3.71734,1.22774-1.37144.79089-2.74318,1.58137-4.11551,2.37145-1.79429,1.03205-3.58917,2.0637-5.38465,3.09494-2.00482,1.1571-3.99389,2.33856-6.0109,3.4713-1.37322.75062-2.56297,1.7964-3.48361,3.06205-1.23911,1.65006-1.91889,3.65269-1.9403,5.71607-.01338,6.2386,0,12.47719-.00981,18.71701-.00149.63331.06958,1.26471.21202,1.88181.62208,2.9025,2.46782,5.3946,5.0632,6.83542,1.07556.6224,2.1535,1.2387,3.22877,1.85989,2.00304,1.15791,4.00608,2.31704,6.00852,3.47739,2.04645,1.18146,4.09321,2.36089,6.14115,3.53829,1.97538,1.1929,4.29512,1.68428,6.58451,1.39461,1.42764-.17975,2.80414-.64713,4.04622-1.3739,1.64263-.9541,3.28676-1.90536,4.93296-2.85377,1.81392-1.04667,3.62872-2.09252,5.44442-3.13757,1.64561-.95004,3.27754-1.922,4.93772-2.84647,1.19362-.66803,2.25134-1.55425,3.11815-2.61261.57242-.6976,1.04226-1.47363,1.39463-2.30445.57659-1.31943.87008-2.74516.86116-4.18505-.01814-2.97314,0-5.94628,0-8.91941M432.96818,52.49425c1.33397.16177,2.61412.62223,3.74529,1.34711,2.10385,1.2314,4.21721,2.4494,6.3267,3.6674,1.9403,1.12056,3.88119,2.24112,5.82208,3.36168.18258.10597.3497.23629.52366.35566l-.05115.1218h-1.09608c-1.96171.02168-3.87494.6142-5.50538,1.7052-1.09608.69548-.70267.67721-1.90996.19123-3.95434-1.55592-6.89288-4.95382-7.86228-9.09115-.10973-.44822-.19983-.90132-.28636-1.35563-.04014-.21559.07434-.31424.2935-.29476M409.9249,66.75338c.45229-1.718,1.55402-3.19321,3.07295-4.1144.78682-.4872,1.59684-.93664,2.39823-1.4007.10289-.0821.23521-.11783.36546-.09866.19715.29815.34227.62765.4288.9744.48916,1.38002.71367,2.83996.66134,4.30319-.04104.90165-.2367,1.78953-.57867,2.62479-.08653.21193-.16206.2436-.39936.18392-.79902-.21315-1.59803-.42386-2.41281-.57246-1.0485-.21445-2.11158-.35164-3.1803-.41047-.09754,0-.19477,0-.29231-.01461-.2144-.02436-.31669-.1218-.28368-.33739.05174-.38505.12727-.76658.2254-1.14248M409.68642,72.29528c0-.74176.03777-.7649.73092-.609,2.02207.43855,3.97575,1.14729,5.80869,2.10714,1.0485.56731,2.05656,1.20625,3.01705,1.91226.12281.09983.23997.20636.35089.31911-.32294.56903-.71992,1.09285-1.18023,1.55782-1.1282,1.21337-2.44076,2.24102-3.88921,3.045-1.24952.70657-2.56803,1.28287-3.93531,1.71981-.26346.10727-.54299.16905-.82697.1827-.0791-.18834-.10527-.39472-.07553-.59682v-9.63682M431.55184,102.81836c-1.15407-.19277-2.25877-.61122-3.25078-1.2314-2.92338-1.69951-5.85122-3.39619-8.78292-5.09002-2.02266-1.16928-4.0486-2.33409-6.07781-3.49444-.98695-.53876-1.8383-1.29518-2.48953-2.21189-.93372-1.32618-1.38214-2.93365-1.26915-4.55167-.00387-.17567.11805-.32915.28993-.3654.39579-.1218.79426-.22777,1.19124-.34348,2.89216-.81347,5.58478-2.21682,7.90838-4.12171,1.06188-.86128,2.00393-1.86032,2.80146-2.9707.15106-.21437.21797-.21802.39698-.0402.73389.74715,1.41575,1.54398,2.04021,2.38484,1.8942,2.50979,3.44793,5.25912,4.62103,8.17644.18377.44944.35684.90376.53585,1.35685.03658.15103-.02795.19731-.17039.16321-1.11035-1.34008-2.5942-2.31949-4.263-2.81358-.56172-.15874-1.14039-.25072-1.72352-.27405-1.24149-.06258-2.48506.07896-3.68076.41899-.09248.02801-.19358.03167-.28368.06699-.30896.10025-.47846.43206-.37795.74111.01725.0539.04252.10498.07464.15168.33721.53588.71427,1.04563,1.1279,1.52493.84124,1.01761,1.89183,1.84185,3.08039,2.41651.90458.42604,1.88618.66508,2.88532.70279,1.26558.06398,2.53354-.0704,3.75748-.39829.04639-.0134.09248-.03045.14006-.0402.27417-.05846.35089-.01949.44575.22898.04371.11327.08415.22777.12192.3447.62654,2.02018,1.1273,4.07727,1.49931,6.15942.12192.71862.28636,1.43115.37646,2.1522.12192.9744.21916,1.11812-.92093.95856M436.20854,72.61318c-.0226.09478-.04014.19074-.05234.28745-.16801.11449-.1912-.04507-.25216-.13276-.17425-1.11147-.61733-2.1635-1.29115-3.06449-.91499-1.23937-2.08868-2.26471-3.4396-3.0048-.10378-.06382-.21321-.11843-.3265-.16321-.27209-.15442-.61762-.05909-.77225.21294-.03509.06179-.05799.12962-.0681.19997-.15641.5374-.24532,1.09222-.26436,1.65161-.01457.58464-.03301,1.1705,0,1.75392.06869,1.64273.66401,3.2198,1.69794,4.49807.97268,1.1931,2.1874,2.1662,3.5639,2.85499.2031.07181.33126.27277.31045.4872-.00595,1.218-.03301,2.436.00743,3.654.02914.87209.14006,1.74296.24354,2.61261.09248.82093.21797,1.63821.32413,2.4567.00178.07231-.00416.1446-.01814.21558-.1582-.01218-.19002-.14372-.24354-.2436-.9248-1.71492-1.94951-3.37423-3.06819-4.96944-.82935-1.17294-1.71727-2.30345-2.66021-3.38726-.62357-.71862-1.27539-1.40882-1.95487-2.0706-2.31557-2.3102-4.99927-4.2189-7.94138-5.64786-.25692-.1218-.62119-.15712-.71486-.45188-.08029-.2436.14868-.49573.22659-.74907.54239-1.7221.70535-3.54131.47757-5.3324-.19864-1.49643-.59502-2.95986-1.17905-4.35191-.04639-.11206-.08296-.22898-.12192-.34226-.05293-.11677-.00238-.25439.1133-.30937.41898-.2436.84273-.4872,1.26439-.7308l7.40048-4.27518c.42136-.2436.84273-.4872,1.26915-.72349.19834-.14212.42374-.24165.66253-.29232.12222.15305.19358.34036.20459.53592.29736,1.63036.82518,3.21011,1.5677,4.69174,1.43448,2.87718,3.70961,5.25039,6.52356,6.80497.27655.15469.54923.31424.83202.45675.25811.13154.52752.2436.7782.35809.022.2436-.13649.38245-.24354.53592-1.28015,1.81274-2.24033,3.83131-2.83922,5.9682M453.8856,90.90267c-.61911.84977-1.41783,1.55259-2.33965,2.05842-2.23706,1.28702-4.47234,2.57607-6.70643,3.86715-.6542.37636-1.30572.7576-1.96468,1.12543-.31907.17905-.40322.15103-.54447-.20219-.30688-.76815-.60246-1.53955-.88674-2.3142-.90101-2.51964-1.60992-5.10392-2.1205-7.73065-.22897-1.14005-.39103-2.29715-.53109-3.45669-.2144-1.73706-.29588-3.48795-.24354-5.2374.04104-2.68181.58908-5.33166,1.61498-7.80982.62982-1.48293,1.51893-2.84159,2.62602-4.01209,1.22395-1.34704,2.86658-2.24144,4.66236-2.53831,1.13385-.18142,2.29237-.14005,3.41046.1218,1.23138.29895,2.41727.76143,3.52613,1.37512.35119.17461.60246.50124.68096.88549.11508.52297.16801,1.05776.15701,1.59314v9.135c0,2.99628-.01338,5.99134,0,8.98762.01011,1.49604-.45943,2.95594-1.33992,4.16556"/>
      <path id="Trazado_22" data-name="Trazado 22" class="cls-1" d="M440.98182,79.34865c.18793-1.74967.82221-3.42178,1.84157-4.85617.82756-1.09236,1.92097-1.95449,3.17643-2.50421.93015-.42837,1.91324-.73105,2.92308-.9001.52247-.09014.89774.21072.82578.71741-.17604,1.60084-.69018,3.14603-1.50793,4.5334-.8802,1.38809-2.16183,2.47559-3.67482,3.11808-.88793.40163-1.82432.68539-2.7857.84407-.61762.09988-.89387-.16322-.81478-.80753,0-.04871.01219-.09622.01814-.14495"/>
      <path id="Trazado_23" data-name="Trazado 23" class="cls-1" d="M485.95028,95.45072c-.24681.00256-.49214-.04211-.7223-.13155-.2141-.08114-.40947-.20552-.57361-.36539-.16177-.16043-.29082-.3507-.38003-.56027-.18288-.45281-.18288-.95885,0-1.41166.08921-.21012.21916-.40055.38241-.56027.16504-.1592.3607-.2835.5748-.36539.46835-.17846.98606-.17846,1.4544,0,.21886.08728.41423.22496.57005.40192l-.31788.3106c-.12341-.13288-.27387-.23793-.44099-.30814-.16623-.06776-.34405-.10211-.52366-.1011-.18318-.00167-.36516.03182-.53585.09865-.15998.06256-.30569.15656-.4288.27647-.12132.1198-.21648.26328-.28012.42144-.135.34074-.135.72014,0,1.06088.06364.15816.15879.30164.28012.42144.12311.11987.26882.21388.4288.27647.17069.0668.35267.10025.53585.09865.17961.00156.35773-.03282.52366-.1011.16801-.07085.31877-.17767.44099-.31301l.31788.3106c-.15582.17738-.35119.31584-.57005.40438-.23224.09307-.48054.13984-.73092.13764"/>
      <path id="Trazado_24" data-name="Trazado 24" class="cls-1" d="M491.70188,95.45072c-.25008.0029-.49808-.04256-.73092-.13396-.43475-.1666-.78236-.5037-.96227-.93298-.18288-.44898-.18288-.95171,0-1.40069.18109-.42768.52723-.76415.95989-.93298.23254-.09151.48084-.13701.73092-.13396.24741-.00208.49273.04256.72348.13155.21529.08159.41155.20589.57748.36539.16325.15991.29201.35137.37884.56272.17961.45218.17961.95584,0,1.40802-.17693.42824-.52306.76448-.95602.92933-.23075.08899-.47608.13363-.72348.13155M491.6998,95.00501c.18169.0019.36219-.03163.53109-.09865.1579-.06356.30123-.15846.42136-.27893.11954-.12092.2144-.2641.27893-.42144.0678-.16745.102-.34673.09991-.52741.00595-.3539-.13054-.69538-.37884-.94762-.11984-.12162-.26317-.21737-.42136-.28134-.1689-.06709-.3494-.10058-.53109-.09865-.1802-.00178-.35892.03171-.52604.09865-.15879.06412-.30301.15983-.42374.28134-.24949.25164-.38687.59328-.38122.94762-.00149.18076.03271.36003.1011.52741.06512.15768.16058.30093.28131.42144.12132.12036.26525.21522.42374.27893.16712.06691.34583.1004.52604.09865"/>
      <path id="Trazado_25" data-name="Trazado 25" class="cls-1" d="M496.53731,95.41288v-3.45302h.40085l2.2668,2.83673h-.21083v-2.83673h.48708v3.45302h-.40085l-2.2668-2.83673h.21083v2.83673h-.48708Z"/>
      <path id="Trazado_26" data-name="Trazado 26" class="cls-1" d="M503.78048,95.45072c-.25454.00074-.5076-.0404-.74906-.12181-.20756-.06345-.39936-.17013-.56261-.31301l.18139-.3849c.14749.12512.31669.22209.49927.28621.20191.07508.41571.11344.631.11326.16504.00513.33007-.01836.48708-.06943.10824-.03479.20369-.10092.27417-.19002.05858-.07925.0898-.17548.08891-.27406.00387-.10694-.03777-.21053-.11448-.28502-.08713-.07791-.18912-.13753-.29974-.17541-.13203-.04687-.26644-.08553-.40322-.11571-.14779-.03252-.29558-.07107-.44337-.11571-.14125-.04189-.27774-.0991-.40679-.17054-.26733-.14262-.42701-.42831-.40798-.73081-.0003-.1724.04817-.34134.14006-.48719.10378-.16188.25335-.28911.42999-.36539.23402-.09858.48678-.14511.74043-.13642.20042.00041.39966.02702.59324.07917.18139.04583.35356.12248.50909.22655l-.16087.39586c-.14244-.09668-.29944-.1695-.46537-.21559-.15463-.04327-.31431-.06579-.47489-.06698-.16147-.00535-.32264.01985-.47489.0743-.10794.0375-.2025.10616-.27149.1973-.0565.08107-.08624.17771-.08534.27647-.00476.10887.03687.21466.11448.29112.08713.07709.18912.13552.29974.17173.13233.04587.26673.08453.40322.11571.14749.03531.29469.0743.44337.12181.14184.03951.27833.09594.40679.16808.11984.06646.22154.16143.29588.27647.07969.1337.11865.28781.11211.44337.00149.17269-.04788.342-.14125.48719-.10646.16232-.25841.28948-.43712.36539-.2364.09817-.49095.14467-.74668.13642"/>
      <path id="Trazado_27" data-name="Trazado 27" class="cls-1" d="M508.72444,95.41288v-3.0243h-1.17548v-.42995h2.83417v.42995h-1.17429v3.0243h-.4844Z"/>
      <path id="Trazado_28" data-name="Trazado 28" class="cls-1" d="M513.18846,95.41165v-3.45302h1.33992c.26346-.00725.52544.04133.76868.14251.19983.08735.36933.23187.48708.41534.11835.19459.17782.41913.17188.64677.00624.22648-.05353.44991-.17188.64312-.11805.18247-.28755.32576-.48708.4117-.24295.10222-.50522.15121-.76868.14374h-1.06694l.22035-.22778v1.2777l-.49333-.00007ZM513.67554,94.18391l-.22035-.24361h1.05237c.25365.01814.50552-.0539.71129-.2034.31669-.30814.32383-.81474.01576-1.13158-.00506-.00532-.01041-.01059-.01576-.01576-.20607-.14868-.45794-.22023-.71129-.20217h-1.05237l.22035-.24361v2.04014ZM515.47578,95.41165l-.87098-1.25331h.52485l.88049,1.25331h-.53436Z"/>
      <path id="Trazado_29" data-name="Trazado 29" class="cls-1" d="M520.43699,95.45187c-.39252.02178-.77671-.11921-1.06218-.38977-.27714-.31245-.41631-.72356-.38598-1.14005v-1.96342h.48708v1.94881c-.02587.30275.06423.60406.25216.84284.41096.35304,1.01787.35304,1.42883,0,.18823-.2386.27863-.54005.25216-.84284v-1.94881h.47489v1.96342c.02974.41605-.10824.82663-.3836,1.14005-.28606.2716-.67204.4127-1.06575.38977"/>
      <path id="Trazado_30" data-name="Trazado 30" class="cls-1" d="M525.9388,95.41288v-1.32275l.11211.30573-1.47254-2.436h.52366l1.23882,2.0572h-.28368l1.24357-2.0572h.48708l-1.46897,2.436.10705-.30573v1.32275h-.48708Z"/>
      <path id="Trazado_31" data-name="Trazado 31" class="cls-1" d="M530.97852,94.98293h1.9962v.42995h-2.48596v-3.45302h2.41786v.42995h-1.9281v2.59312ZM530.9348,93.44946h1.76247v.41898h-1.76247v-.41898Z"/>
      <path id="Trazado_32" data-name="Trazado 32" class="cls-1" d="M536.04053,95.41288v-3.45302h.40085l2.2665,2.83673h-.21053v-2.83673h.48708v3.45302h-.40204l-2.26531-2.83673h.21053v2.83673h-.48708Z"/>
      <path id="Trazado_33" data-name="Trazado 33" class="cls-1" d="M542.28635,95.41165v-3.45302h1.4434c.33483-.0065.66609.06828.96584.218.2706.1369.4966.34818.65182.609.30926.56235.30926,1.24394,0,1.8063-.15522.26082-.38122.4721-.65182.609-.29974.14972-.631.22451-.96584.218l-1.4434-.00729ZM542.77343,94.9817h.92421c.25335.0055.50373-.05007.73092-.16199.2028-.10259.3717-.26108.48708-.45675.22719-.42456.22719-.93472,0-1.35928-.11538-.19459-.28487-.35186-.48708-.45311-.22659-.11285-.47757-.16887-.73092-.16322h-.92421v2.59435Z"/>
      <path id="Trazado_34" data-name="Trazado 34" class="cls-1" d="M550.14507,95.45072c-.24979.00294-.49838-.04256-.73092-.13396-.43475-.1666-.78207-.5037-.96227-.93298-.18318-.44891-.18318-.95179,0-1.40069.1808-.42779.52693-.76426.95989-.93298.23254-.0917.48113-.1372.73092-.13396.248-.00219.49362.04241.72497.13155.21529.08185.41155.20611.57748.36539.16296.15991.29201.35137.37884.56272.17901.45225.17901.95576,0,1.40802-.17723.42813-.52336.7643-.95632.92933-.23135.08913-.47697.13374-.72497.13155M550.14269,95.00501c.18199.00204.36278-.03148.53228-.09865.1582-.06345.30153-.15835.42166-.27893.11954-.12088.2141-.26406.27893-.42144.0678-.16749.1017-.34673.09991-.52741.00595-.35412-.13084-.69572-.38003-.94762-.11954-.1217-.26346-.21748-.42166-.28134-.1695-.0672-.35029-.10073-.53228-.09865-.1802-.00182-.35921.03167-.52633.09865-.15879.06412-.30331.15983-.42404.28134-.24919.25187-.38657.59339-.38122.94762-.00178.1808.03271.36011.1011.52741.13025.31926.38419.57202.70416.70036.16712.06691.34613.10043.52633.09865"/>
      <path id="Trazado_35" data-name="Trazado 35" class="cls-1" d="M560.10079,95.45072c-.24622.00245-.49124-.04219-.72081-.13155-.2141-.08118-.40977-.20555-.57391-.36539-.16177-.16054-.29082-.35078-.38003-.56027-.18258-.45288-.18258-.95877,0-1.41166.08921-.20998.21886-.40036.38122-.56027.16593-.15916.36159-.28342.57629-.36539.46805-.17808.98487-.17808,1.45292,0,.21886.08698.41452.22473.56975.40192l-.31818.3106c-.12311-.13288-.27357-.23793-.44069-.30814-.16652-.06787-.34435-.10222-.52395-.1011-.18318-.00167-.36516.03182-.53585.09865-.15998.0623-.30569.15634-.4288.27647-.12192.11965-.21767.26309-.28131.42144-.135.34074-.135.72014,0,1.06088.06364.15835.15939.30179.28131.42144.12311.1201.26882.21414.4288.27647.17069.0668.35267.10025.53585.09865.17961.00178.35803-.0326.52395-.1011.16831-.07085.31818-.17767.44069-.31301l.31818.3106c-.15582.1776-.35089.31613-.56975.40438-.23254.09315-.48054.13991-.73092.13764"/>
      <path id="Trazado_36" data-name="Trazado 36" class="cls-1" d="M565.8512,95.45072c-.24979.00309-.49838-.04241-.73092-.13396-.43475-.1666-.78207-.5037-.96227-.93298-.18318-.44891-.18318-.95179,0-1.40069.1808-.42779.52693-.76426.95989-.93298.23254-.0917.48113-.1372.73092-.13396.248-.00219.49362.04241.72497.13155.21529.08177.41215.20604.57867.36539.16296.16006.29201.35148.37884.56272.17901.45225.17901.95576,0,1.40802-.17723.42839-.52276.76467-.95632.92933-.23135.08913-.47697.13374-.72497.13155M565.85001,95.00501c.18199.00204.36278-.03148.53228-.09865.1582-.06345.30153-.15835.42166-.27893.11954-.12088.2141-.26406.27893-.42144.0678-.16749.1017-.34673.09991-.52741.00595-.35412-.13084-.69572-.38003-.94762-.11954-.1217-.26346-.21748-.42166-.28134-.1695-.0672-.35029-.10073-.53228-.09865-.1802-.00178-.35921.03174-.52633.09865-.15879.06412-.30331.15983-.42404.28134-.11954.1214-.2141.26443-.28012.42144-.06839.16693-.10289.3458-.1011.52618-.00119.18076.03271.36.1011.52741.13025.31926.38419.57202.70416.70036.16712.06683.34613.10036.52633.09865"/>
      <path id="Trazado_37" data-name="Trazado 37" class="cls-1" d="M570.68781,95.41288v-3.45302h.40085l1.53737,2.60895h-.21529l1.51655-2.60895h.40322v3.45302h-.47043v-2.7076h.11181l-1.35122,2.28739h-.2254l-1.36073-2.28862h.12192v2.7076l-.46864.00123Z"/>
      <path id="Trazado_38" data-name="Trazado 38" class="cls-1" d="M579.05175,95.45187c-.39252.02148-.77671-.11947-1.06218-.38977-.27714-.31253-.41631-.72356-.38598-1.14005v-1.96342h.48708v1.94881c-.02617.30275.06423.60406.25216.84284.41096.35286,1.01758.35286,1.42853,0,.18853-.23852.27833-.54001.25216-.84284v-1.94881h.47519v1.96342c.03033.41605-.10824.82678-.3836,1.14005-.28547.27142-.67085.41252-1.06456.38977"/>
      <path id="Trazado_39" data-name="Trazado 39" class="cls-1" d="M583.77655,95.41288v-3.45302h.40085l2.26531,2.83673h-.21053v-2.83673h.48708v3.45302h-.39847l-2.2665-2.83673h.21053v2.83673h-.48827Z"/>
      <rect id="Rectángulo_9" data-name="Rectángulo 9" class="cls-1" x="590.02237" y="91.95867" width=".48964" height="3.45303"/>
      <path id="Trazado_40" data-name="Trazado 40" class="cls-1" d="M593.809,95.41165v-3.45302h1.4434c.33483-.0065.66609.06828.96584.218.2706.1369.4966.34818.65182.609.30926.56235.30926,1.24394,0,1.8063-.15522.26082-.38122.4721-.65182.609-.29974.14972-.631.22451-.96584.218l-1.4434-.00729ZM594.29608,94.9817h.92837c.25335.0055.50373-.05007.73092-.16199.2028-.10259.3717-.26108.48708-.45675.22719-.42456.22719-.93472,0-1.35928-.11538-.19459-.28487-.35186-.48708-.45311-.22659-.11285-.47757-.16887-.73092-.16322h-.92421l-.00416,2.59435Z"/>
      <path id="Trazado_41" data-name="Trazado 41" class="cls-1" d="M599.55554,95.41165l1.55164-3.45302h.48708l1.55521,3.45302h-.51265l-1.38928-3.17655h.19507l-1.38512,3.17655h-.50195ZM600.21569,94.54807l.13025-.39464h1.92929l.14273.39464h-2.20227Z"/>
      <path id="Trazado_42" data-name="Trazado 42" class="cls-1" d="M605.92804,95.41165v-3.45302h1.4434c.33483-.0065.66609.06828.96584.218.2706.1369.4966.34818.65182.609.30926.56235.30926,1.24394,0,1.8063-.15522.26082-.38122.4721-.65182.609-.29974.14972-.631.22451-.96584.218l-1.4434-.00729ZM606.41512,94.9817h.92421c.25335.0055.50373-.05007.73092-.16199.2028-.1024.3717-.26097.48708-.45675.22837-.42434.22837-.93495,0-1.35928-.11538-.1947-.28428-.352-.48708-.45311-.22659-.11285-.47757-.16887-.73092-.16322h-.92421v2.59435Z"/>
      <path id="Trazado_43" data-name="Trazado 43" class="cls-1" d="M612.73111,94.98293h1.9965v.42995h-2.48596v-3.45302h2.41756v.42995h-1.9281v2.59312ZM612.6871,93.44946h1.76099v.41898h-1.76099v-.41898Z"/>
      <path id="Trazado_44" data-name="Trazado 44" class="cls-1" d="M618.79197,95.45072c-.25454.00078-.5079-.04037-.74936-.12181-.20756-.06349-.39906-.17017-.56261-.31301l.18139-.3849c.14749.12512.31699.22213.49957.28621.20221.07512.41631.11348.63219.11326.16533.0052.33007-.01829.48708-.06943.10883-.03464.20459-.10077.27536-.19002.05828-.07947.08861-.17563.08742-.27406.00416-.10701-.03747-.21068-.11478-.28502-.08742-.07783-.18912-.13746-.29974-.17541-.13203-.04706-.26703-.08571-.40441-.11571-.14749-.0329-.29379-.07185-.44188-.11571-.14154-.04193-.27774-.0991-.40679-.17054-.12013-.06706-.22183-.16292-.29617-.27893-.07969-.13675-.11895-.29365-.11181-.45188-.00059-.17221.04758-.34111.13857-.48719.10408-.16206.25395-.2893.43118-.36539.23432-.0985.48649-.14504.74043-.13642.19983.00048.39906.0271.59175.07917.18139.04583.35386.12244.50909.22655l-.16058.39586c-.14273-.09687-.30034-.16972-.46627-.21559-.15463-.04338-.31461-.0659-.47519-.06698-.16177-.00535-.32294.01985-.47519.0743-.10824.03736-.2034.10601-.27298.1973-.0559.08137-.08505.1779-.08386.27647-.00476.10895.03687.21481.11478.29112.08742.07709.18912.13552.29974.17173.13203.04598.26703.0846.40322.11571.14749.03531.29379.0743.44188.12181.14154.03955.27833.09597.40679.16808.12013.06642.22183.16139.29617.27647.07969.1337.11895.28781.11181.44337.00119.17273-.04817.34204-.14154.48719-.10586.16262-.25811.28985-.43712.36539-.23611.09809-.49005.14463-.74519.13642"/>
      <path id="Trazado_45" data-name="Trazado 45" class="cls-1" d="M76.03862,97.20695c0-.51886-.22046-.67475-.65773-.79292v-.12181h4.3434c2.11444,0,3.15707.76125,3.15707,1.72348s-.93785,1.72348-2.77949,1.72348l2.4567,2.1254c.32665.29569.70992.52191,1.12664.66502v.10962h-2.07061l-3.78919-3.28861v-.15225h1.79897c1.14492,0,1.68085-.49452,1.68085-1.17659s-.53715-1.1583-1.68085-1.1583h-1.827c-.24361,0-.391.00732-.391.30573v4.59917c0,.49452.21314.64677.65773.76735v.10962h-2.6869v-.10962c.43359-.12181.65773-.27406.65773-.76735v-4.56018l.00368-.00123Z"/>
      <path id="Trazado_46" data-name="Trazado 46" class="cls-1" d="M93.73248,99.6625h1.90127c.41898,0,.74296-.07795.84526-.51886h.11084l-.12787,1.58339h-.12177c-.06698-.43359-.29112-.51886-.70765-.51886h-1.90127v1.76611c0,.07795.02438.12181.10356.12181h2.86472c.48738.02765.93432-.2703,1.09623-.73081h.10965l-.33372,1.27283h-5.75874v-.10962c.33149-.03278.5751-.32584.54685-.65773v-3.74655c.02825-.33189-.21537-.62495-.54685-.65773v-.12181h5.43469c.10356,0,.24361,0,.30569-.08527h.12177l-.15344,1.24357h-.12177c-.02438-.25577-.17054-.609-.89521-.609h-2.77945l.00721,1.76853Z"/>
      <path id="Trazado_47" data-name="Trazado 47" class="cls-1" d="M105.93928,100.86715h.12177c.45184,1.07307,1.67111,1.29717,2.80139,1.29717s2.07061-.22046,2.07061-.8599c0-1.44333-4.81959.10352-4.81959-2.41407,0-1.49934,1.7308-1.66378,2.80139-1.66378.78786-.06468,1.579.07635,2.29594.40925l.13523-.15225h.10356v1.51031h-.10356c-.09255-.83555-1.218-1.14492-2.24353-1.14492-.97439,0-1.88424.10352-1.88424.71862,0,1.42508,4.8123-.10962,4.8123,2.436,0,1.56027-1.79169,1.79169-3.12053,1.79169-.96844.03364-1.93331-.13478-2.83305-.49452l-.12177-1.42508-.01591-.00851Z"/>
      <path id="Trazado_48" data-name="Trazado 48" class="cls-1" d="M122.1484,99.6625h1.90127c.41898,0,.74296-.07795.84652-.51886h.10965l-.12177,1.58339h-.12177c-.06698-.43359-.29112-.51886-.70765-.51886h-1.90127v1.76611c0,.07795.02438.12181.10356.12181h2.86472c.48738.02765.93432-.2703,1.09623-.73081h.10965l-.33372,1.27283h-5.75874v-.10962c.33149-.03278.5751-.32584.54685-.65773v-3.74655c.02825-.33189-.21537-.62495-.54685-.65773v-.12181h5.43469c.10356,0,.24361,0,.30569-.08527h.12177l-.15344,1.24357h-.12177c-.02438-.25577-.17054-.609-.89521-.609h-2.77945l.00104,1.76853Z"/>
      <path id="Trazado_49" data-name="Trazado 49" class="cls-1" d="M135.19321,98.12662c.02825-.33189-.21537-.62495-.54685-.65773v-.12181h3.96705c1.62115,0,2.41407.63944,2.41407,1.46161,0,.76125-.68936,1.35806-2.02311,1.45065l1.88424,1.66378c.26911.27276.59941.47734.96346.59681v.12181h-2.00482l-3.00359-2.79042v-.12181h1.28624c.98777,0,1.3727-.40192,1.3727-.92082s-.38367-.90253-1.38244-.90253h-1.36668c-.12177,0-.24361.00732-.24361.18879v3.77581c0,.40925.18883.5615.54685.65773v.10962h-2.42381v-.10962c.33149-.03278.5751-.32584.54685-.65773v-3.74655l.01346.00242Z"/>
      <path id="Trazado_50" data-name="Trazado 50" class="cls-1" d="M153.22569,102.79522h-.10965l-3.24111-4.57482c-.20652-.37761-.56313-.65018-.98174-.75028v-.12181h3.03526v.12181c-.32398.08527-.76006.27406-.52983.609l2.07061,3.00359,2.13269-3.03526c.21314-.2984-.15225-.49452-.50425-.57978v-.12181h2.38121v.12181c-.36539.04992-.62238.26309-.99877.7856l-3.25204,4.53947-.00238.00249Z"/>
      <path id="Trazado_51" data-name="Trazado 51" class="cls-1" d="M168.9342,101.27759h-3.43722l-.40189.63944c-.20578.30573.10958.51158.5189.609v.11084h-2.31423v-.11084c.44129-.08698.81478-.37865,1.00613-.7856l2.436-3.85011-.06096-.08527c-.1524-.18682-.37007-.30874-.609-.34104v-.12181h1.92691l2.79046,4.43595c.19046.38966.55503.66546.98174.74296v.10962h-3.00619v-.10962c.33379-.08527.76006-.29112.54685-.63944l-.37631-.609-.00119.00491ZM165.9063,100.61257h2.61992l-1.28743-2.1254-1.32877,2.1254h-.00372Z"/>
      <path id="Trazado_52" data-name="Trazado 52" class="cls-1" d="M189.47583,100.64911h.12177c.46166,1.33981,2.04749,1.57123,3.19234,1.57123,1.33977,0,2.56639-.30573,2.56639-1.1583,0-1.92688-5.74045.01829-5.74045-2.94999,0-1.6029,1.88424-1.98048,3.56509-1.98048.85418-.03981,1.70404.14273,2.46648.52983.08103-.01855.14764-.07601.17782-.15348h.11448v1.51031h-.12177c-.21321-1.15225-1.88424-1.32275-2.61992-1.32275-1.25458,0-2.38857.30573-2.38857,1.0414,0,1.85867,5.75145-.06698,5.75145,2.96828,0,1.67111-2.17536,2.09738-3.77577,2.09738-1.10931.03988-2.21209-.18563-3.21673-.65773l-.0962-1.49328.00357-.00242Z"/>
      <path id="Trazado_53" data-name="Trazado 53" class="cls-1" d="M209.68851,101.27759h-3.43722l-.40189.63944c-.20578.30573.10958.51158.5189.609v.11084h-2.31423v-.11084c.44114-.08716.81463-.37877,1.00613-.7856l2.436-3.85011-.06096-.08527c-.15225-.18693-.37007-.30889-.609-.34104v-.12181h1.92691l2.79046,4.43595c.19016.38947.55414.66531.98056.74296v.10962h-3.01095v-.10962c.33379-.08527.76125-.29112.54685-.63944l-.37631-.609.00476.00491ZM206.6606,100.61257h2.61992l-1.28743-2.1254-1.32877,2.1254h-.00372Z"/>
      <path id="Trazado_54" data-name="Trazado 54" class="cls-1" d="M220.11956,102.64538v-.10962c.33156-.03278.5751-.32584.54685-.65773v-3.74655c.02825-.33189-.21529-.62495-.54685-.65773v-.12181h3.89754c1.58346,0,2.63821.2984,2.63821,1.28621-.00624.5867-.47325,1.06452-1.05965,1.08404.98056.04263,1.56027.609,1.56027,1.38244,0,1.13396-1.07304,1.53588-3.05347,1.53588h-3.97798l-.00491.00487ZM221.99652,97.91103v1.63821h1.94877c.73077,0,1.31539-.22046,1.31539-.85261s-.609-.7856-1.34706-.7856h-1.9171ZM221.99652,101.95602c0,.10352.01829.14615.12177.14615h1.96944c1.08404,0,1.58346-.36539,1.58346-1.00605s-.49452-.99877-1.49321-.99877h-2.18265l.00119,1.85867Z"/>
      <path id="Trazado_55" data-name="Trazado 55" class="cls-1" d="M237.90605,97.35317v.12181c-.32888.02178-.57793.30606-.55607.63494.00045.00762.00119.0152.00193.02279v3.80748c0,.35933.21321.51158.55414.59681v.10962h-2.436v-.12181c.32398-.07795.5299-.23142.5299-.58952v-3.80748c.04029-.32171-.18778-.61521-.50953-.65554-.00669-.00085-.01353-.0016-.02037-.00219v-.12181h2.436v.00491Z"/>
      <path id="Trazado_56" data-name="Trazado 56" class="cls-1" d="M253.56089,102.79526h-.12177l-5.64054-4.19115v3.32757c0,.35933.20578.51158.53719.59681v.11084h-1.94877v-.12181c.33379-.07795.55414-.23142.55414-.58952v-3.88178c0-.34104-.24354-.49452-.55414-.57978v-.12181h1.79161l4.52855,3.3702v-2.66255c0-.34836-.22049-.50425-.54685-.58952v-.12181h1.93658v.12181c-.33379.08527-.54685.24361-.54685.58952v4.73436l.01085.00862Z"/>
      <path id="Trazado_57" data-name="Trazado 57" class="cls-1" d="M266.18173,97.22397c1.97925,0,3.91702.94517,3.91702,2.71247s-1.98044,2.84038-4.05232,2.84038-3.93174-.99877-3.93174-2.72953,1.96215-2.82209,4.06927-2.82209l-.00223-.00123ZM266.12449,102.24699c1.2238.12645,2.31839-.76315,2.44492-1.98698.00758-.0743.0116-.14898.01175-.22369.00297-1.25658-1.01312-2.27769-2.26977-2.28074-.08237-.00019-.16474.00409-.24666.01282-1.20328-.13459-2.28791.73177-2.42247,1.93513-.00981.08783-.01442.17619-.01353.26458-.01591,1.24907.98383,2.27453,2.2329,2.2904.08624.00108.17232-.00275.25811-.01149l.00476-.00004Z"/>
      <path id="Trazado_58" data-name="Trazado 58" class="cls-1" d="M298.11044,73.36707c-1.28011-.8392-2.51638-1.7052-3.82086-2.48106-3.79463-2.38017-7.81532-4.3793-12.00338-5.9682-3.41403-1.29534-6.95287-2.23413-10.56006-2.8014-2.07693-.35984-4.1858-.50149-6.29219-.42265-5.87428.50955-11.70751,1.41454-17.46004,2.70883-8.84756,1.80264-17.68414,3.75388-26.4988,5.7246l-2.14003.47989c6.6745,3.48811,13.09684,7.43879,19.22004,11.82313-2.65889-1.3398-5.31778-2.66255-8.00104-3.94876-2.45306-1.16197-5.57722-2.57729-8.09726-3.66862-2.48837-1.05601-5.17893-2.15708-7.75988-3.1668-.71131-.2777-1.41166-.54323-2.0974-.80631-2.74375-1.03043-5.50698-1.99833-8.28971-2.90371l-.03897-.01462c-13.91058-4.57742-28.32328-7.45734-42.92476-8.57716-19.84521-1.16983-39.75404.61868-59.073,5.30682-9.07532,2.21798-18.12506,5.2374-26.98966,8.24708-17.5258,5.88537-36.41819,12.6063-53.72597,19.08606,16.79288-9.05359,34.13622-17.04673,51.92821-23.93248,8.8857-3.66485,17.97433-6.81694,27.22108-9.44072,19.91477-5.34563,40.6098-7.17408,61.15334-5.40305,16.77708,1.72212,33.16795,6.13157,48.5446,13.0594,3.18872-.84935,6.38435-1.67638,9.58688-2.48106,8.8914-2.14003,17.82665-4.05594,26.86177-5.54556,6.1294-1.1371,12.34907-1.71761,18.58303-1.73443,12.47353.74298,24.46718,7.79154,32.67405,16.86077Z"/>
    </g>
  </g>
</svg>